<?xml version="1.0" encoding="UTF-8" standalone="no"?>
<!-- Created with Inkscape (http://www.inkscape.org/) -->
<svg
   xmlns:dc="http://purl.org/dc/elements/1.1/"
   xmlns:cc="http://web.resource.org/cc/"
   xmlns:rdf="http://www.w3.org/1999/02/22-rdf-syntax-ns#"
   xmlns:svg="http://www.w3.org/2000/svg"
   xmlns="http://www.w3.org/2000/svg"
   xmlns:sodipodi="http://sodipodi.sourceforge.net/DTD/sodipodi-0.dtd"
   xmlns:inkscape="http://www.inkscape.org/namespaces/inkscape"
   width="400"
   height="450"
   id="svg3408"
   sodipodi:version="0.32"
   inkscape:version="0.45"
   version="1.0"
   sodipodi:docbase="/home/kdedev/kde/src/playground/games/kblocks/themes"
   sodipodi:docname="bw_theme.svg"
   inkscape:output_extension="org.inkscape.output.svg.inkscape"
   inkscape:export-filename="/home/kdedev/kde/src/playground/games/kblocks/themes/bw_preview.png"
   inkscape:export-xdpi="45"
   inkscape:export-ydpi="45"
   sodipodi:modified="true">
  <defs
     id="defs3410" />
  <sodipodi:namedview
     id="base"
     pagecolor="#ffffff"
     bordercolor="#666666"
     borderopacity="1.0"
     gridtolerance="10000"
     guidetolerance="10"
     objecttolerance="10"
     inkscape:pageopacity="0.0"
     inkscape:pageshadow="2"
     inkscape:zoom="1.1177778"
     inkscape:cx="217.37492"
     inkscape:cy="225.24539"
     inkscape:document-units="px"
     inkscape:current-layer="layer1"
     width="400px"
     height="450px"
     inkscape:window-width="1024"
     inkscape:window-height="700"
     inkscape:window-x="0"
     inkscape:window-y="0" />
  <metadata
     id="metadata3413">
    <rdf:RDF>
      <cc:Work
         rdf:about="">
        <dc:format>image/svg+xml</dc:format>
        <dc:type
           rdf:resource="http://purl.org/dc/dcmitype/StillImage" />
      </cc:Work>
    </rdf:RDF>
  </metadata>
  <g
     inkscape:label="Layer 1"
     inkscape:groupmode="layer"
     id="layer1">
    <path
       style="fill:#000000;fill-opacity:1;stroke:#000000;stroke-opacity:1"
       d="M 421.54225,171.38618 L 440.54225,171.38618 L 440.54225,190.38618 L 421.54225,190.38618 L 421.54225,171.38618 z "
       id="BLOCK_0"
       inkscape:label="#BLOCK_0" />
    <path
       style="fill:none;stroke:#000000;stroke-opacity:1"
       d="M 421.54225,207.89562 L 440.54225,207.89562 L 440.54225,226.89562 L 421.54225,226.89562 L 421.54225,207.89562 z "
       id="BLOCK_OUT_0"
       inkscape:label="#path4388" />
    <path
       style="fill:#000000;fill-opacity:1;stroke:#000000;stroke-opacity:1"
       d="M 448.18594,171.38618 L 467.18594,171.38618 L 467.18594,190.38618 L 448.18594,190.38618 L 448.18594,171.38618 z "
       id="BLOCK_1"
       inkscape:label="#path5359" />
    <path
       style="fill:#000000;fill-opacity:1;stroke:#000000;stroke-opacity:1"
       d="M 474.82967,171.38618 L 493.82967,171.38618 L 493.82967,190.38618 L 474.82967,190.38618 L 474.82967,171.38618 z "
       id="BLOCK_2"
       inkscape:label="#path5361" />
    <path
       style="fill:#000000;fill-opacity:1;stroke:#000000;stroke-opacity:1"
       d="M 501.4734,171.38618 L 520.4734,171.38618 L 520.4734,190.38618 L 501.4734,190.38618 L 501.4734,171.38618 z "
       id="BLOCK_3"
       inkscape:label="#path5363" />
    <path
       style="fill:#000000;fill-opacity:1;stroke:#000000;stroke-opacity:1"
       d="M 528.11709,171.38618 L 547.11709,171.38618 L 547.11709,190.38618 L 528.11709,190.38618 L 528.11709,171.38618 z "
       id="BLOCK_4"
       inkscape:label="#path5365" />
    <path
       style="fill:#000000;fill-opacity:1;stroke:#000000;stroke-opacity:1"
       d="M 554.76085,171.38618 L 573.76085,171.38618 L 573.76085,190.38618 L 554.76085,190.38618 L 554.76085,171.38618 z "
       id="BLOCK_5"
       inkscape:label="#path5367" />
    <path
       style="fill:#000000;fill-opacity:1;stroke:#000000;stroke-opacity:1"
       d="M 581.40457,171.38618 L 600.40457,171.38618 L 600.40457,190.38618 L 581.40457,190.38618 L 581.40457,171.38618 z "
       id="BLOCK_6"
       inkscape:label="#path5369" />
    <path
       style="fill:none;stroke:#000000;stroke-opacity:1"
       d="M 448.18594,207.89562 L 467.18594,207.89562 L 467.18594,226.89562 L 448.18594,226.89562 L 448.18594,207.89562 z "
       id="BLOCK_OUT_1"
       inkscape:label="#path5371" />
    <path
       style="fill:none;stroke:#000000;stroke-opacity:1"
       d="M 474.82966,207.89562 L 493.82966,207.89562 L 493.82966,226.89562 L 474.82966,226.89562 L 474.82966,207.89562 z "
       id="BLOCK_OUT_2"
       inkscape:label="#path5373" />
    <path
       style="fill:none;stroke:#000000;stroke-opacity:1"
       d="M 501.4734,207.89562 L 520.4734,207.89562 L 520.4734,226.89562 L 501.4734,226.89562 L 501.4734,207.89562 z "
       id="BLOCK_OUT_3"
       inkscape:label="#path5375" />
    <path
       style="fill:none;stroke:#000000;stroke-opacity:1"
       d="M 528.11709,207.89563 L 547.11709,207.89563 L 547.11709,226.89563 L 528.11709,226.89563 L 528.11709,207.89563 z "
       id="BLOCK_OUT_4"
       inkscape:label="#path5377" />
    <path
       style="fill:none;stroke:#000000;stroke-opacity:1"
       d="M 554.76083,207.89562 L 573.76083,207.89562 L 573.76083,226.89562 L 554.76083,226.89562 L 554.76083,207.89562 z "
       id="BLOCK_OUT_5"
       inkscape:label="#path5379" />
    <path
       style="fill:none;stroke:#000000;stroke-opacity:1"
       d="M 581.40457,207.89562 L 600.40457,207.89562 L 600.40457,226.89562 L 581.40457,226.89562 L 581.40457,207.89562 z "
       id="BLOCK_OUT_6"
       inkscape:label="#path5381" />
    <g
       id="VIEW"
       inkscape:label="#FIELD_AREA">
      <path
         style="font-size:18px;font-style:normal;font-variant:normal;font-weight:bold;font-stretch:normal;text-align:start;line-height:125%;writing-mode:lr-tb;text-anchor:start;fill:#000000;fill-opacity:1;stroke:none;stroke-width:1px;stroke-linecap:butt;stroke-linejoin:miter;stroke-opacity:1;font-family:Bitstream Vera Sans Mono"
         d="M 27.027241,85.288668 L 27.027241,72.166597 L 29.620014,72.166597 L 29.620014,83.003511 L 35.165913,83.003511 L 35.165913,85.288668 L 27.027241,85.288668 M 41.291889,83.126558 L 43.603413,72.166597 L 46.213764,72.166597 L 43.093647,85.288668 L 39.49892,85.288668 L 36.378803,72.166597 L 38.989155,72.166597 L 41.291889,83.126558 M 48.683491,85.288668 L 48.683491,72.166597 L 51.276264,72.166597 L 51.276264,83.003511 L 56.822163,83.003511 L 56.822163,85.288668 L 48.683491,85.288668"
         id="text2185" />
      <path
         style="font-size:18px;font-style:normal;font-variant:normal;font-weight:bold;font-stretch:normal;text-align:start;line-height:125%;writing-mode:lr-tb;text-anchor:start;fill:#000000;fill-opacity:1;stroke:none;stroke-width:1px;stroke-linecap:butt;stroke-linejoin:miter;stroke-opacity:1;font-family:Bitstream Vera Sans Mono"
         d="M 29.960936,47.778586 L 29.960936,51.628195 L 31.024412,51.628195 C 31.874016,51.628202 32.468742,51.484648 32.808592,51.197531 C 33.154288,50.910429 33.327139,50.412383 33.327147,49.70339 C 33.327139,48.994416 33.154288,48.496369 32.808592,48.20925 C 32.468742,47.922151 31.874016,47.778597 31.024412,47.778586 L 29.960936,47.778586 M 27.368162,45.598898 L 30.927732,45.598898 C 32.738273,45.598911 34.039052,45.921177 34.830076,46.565695 C 35.626942,47.210238 36.025379,48.256135 36.025389,49.70339 C 36.025379,51.150664 35.626942,52.196561 34.830076,52.841086 C 34.039052,53.485622 32.738273,53.807888 30.927732,53.807883 L 29.960936,53.807883 L 29.960936,58.720969 L 27.368162,58.720969 L 27.368162,45.598898 M 43.487303,58.720969 L 40.894529,58.720969 L 40.894529,47.866476 L 37.563475,47.866476 L 37.563475,45.598898 L 46.818357,45.598898 L 46.818357,47.866476 L 43.487303,47.866476 L 43.487303,58.720969 M 52.083006,52.964133 C 50.776362,52.466092 49.891597,51.944608 49.428709,51.399679 C 48.965817,50.848906 48.734372,50.110626 48.734373,49.184836 C 48.734372,47.995393 49.115231,47.060824 49.876951,46.381125 C 50.638667,45.70145 51.684564,45.361607 53.014647,45.361594 C 53.618156,45.361607 54.221671,45.431919 54.825193,45.572531 C 55.428701,45.70731 56.026357,45.909458 56.618162,46.178976 L 56.618162,48.710226 C 56.061513,48.317659 55.496084,48.018831 54.921873,47.813742 C 54.347648,47.608675 53.779289,47.506136 53.216795,47.506125 C 52.589837,47.506136 52.109369,47.632112 51.775389,47.884054 C 51.441401,48.136018 51.274408,48.496369 51.274412,48.965109 C 51.274408,49.3284 51.394526,49.630157 51.634764,49.870383 C 51.880853,50.104766 52.390618,50.365508 53.164061,50.652609 L 54.280272,51.074484 C 55.334951,51.46121 56.111318,51.973905 56.609373,52.61257 C 57.10741,53.251247 57.356434,54.056911 57.356443,55.029562 C 57.356434,56.353783 56.963856,57.344017 56.178709,58.000265 C 55.399404,58.650656 54.218741,58.975851 52.636717,58.975851 C 51.986322,58.975851 51.333002,58.89675 50.676756,58.738547 C 50.026363,58.586203 49.396481,58.357688 48.787107,58.053 L 48.787107,55.372336 C 49.478512,55.864526 50.14648,56.230737 50.791014,56.470969 C 51.441401,56.711205 52.083001,56.831322 52.715818,56.83132 C 53.354485,56.831322 53.849601,56.687767 54.20117,56.400656 C 54.552726,56.10769 54.728507,55.700464 54.728514,55.178976 C 54.728507,54.786402 54.611319,54.443629 54.376951,54.150656 C 54.14257,53.851833 53.802726,53.617458 53.35742,53.447531 L 52.083006,52.964133"
         id="text2181" />
      <rect
         y="175.5527"
         x="15.552711"
         height="98.894577"
         width="98.894577"
         id="rect5383"
         style="opacity:1;fill:none;fill-opacity:1;stroke:#000000;stroke-width:1.10542166;stroke-opacity:1" />
      <rect
         y="25.480783"
         x="130.48079"
         height="414.03842"
         width="14.038411"
         id="rect6357"
         style="opacity:1;fill:#000000;fill-opacity:1;stroke:#000000;stroke-width:0.96158862;stroke-opacity:1" />
      <rect
         y="25.480783"
         x="345.4808"
         height="414.03842"
         width="14.038411"
         id="rect6359"
         style="opacity:1;fill:#000000;fill-opacity:1;stroke:#000000;stroke-width:0.96158862;stroke-opacity:1" />
      <rect
         y="425.46579"
         x="145.46579"
         height="14.068422"
         width="199.06842"
         id="rect6382"
         style="opacity:1;fill:#000000;fill-opacity:1;stroke:#000000;stroke-width:0.93157768;stroke-opacity:1" />
      <rect
         y="3.8146973e-06"
         x="0"
         height="450"
         width="400"
         id="rect7353"
         style="opacity:1;fill:none;fill-opacity:1;stroke:none;stroke-opacity:1" />
    </g>
    <path
       style="fill:none;fill-opacity:1;stroke:#000000;stroke-opacity:1"
       d="M 431.21274,20.57654 L 536.77934,20.57654 L 536.77934,108.2505 L 431.21274,108.2505 L 431.21274,20.57654 z "
       id="BACKGROUND" />
    <path
       style="fill:#000000;fill-opacity:1;stroke:#000000;stroke-width:0.95238084;stroke-opacity:1"
       d="M 421.68892,134.51198 L 440.73654,134.51198 L 440.73654,153.5596 L 421.68892,153.5596 L 421.68892,134.51198 z "
       id="BLOCK_SIZE"
       inkscape:label="#BLOCK_SIZE" />
    <rect
       style="opacity:1;fill:#ff0000;fill-opacity:1;stroke:none;stroke-opacity:1"
       id="PLAY_AREA"
       width="200"
       height="400"
       x="145"
       y="25"
       inkscape:label="#rect2191" />
    <rect
       style="opacity:1;fill:#ff0000;fill-opacity:1;stroke:none;stroke-opacity:1"
       id="NEXTPIECE_AREA"
       width="100"
       height="100"
       x="15"
       y="175"
       inkscape:label="#rect2193" />
    <rect
       style="opacity:1;fill:#000000;fill-opacity:0;stroke:#000000;stroke-opacity:1"
       id="SCORE_AREA"
       width="47.415508"
       height="13.419483"
       x="68.004974"
       y="45.458981"
       inkscape:label="#rect2191" />
    <rect
       style="opacity:1;fill:#000000;fill-opacity:0;stroke:#000000;stroke-opacity:1"
       id="LEVEL_AREA"
       width="47.415508"
       height="13.419483"
       x="68.004974"
       y="72.017891"
       inkscape:label="#rect2193" />
  </g>
</svg>
