<?xml version="1.0" encoding="UTF-8" standalone="no"?>
<!-- Created with Inkscape (http://www.inkscape.org/) -->
<svg
   xmlns:dc="http://purl.org/dc/elements/1.1/"
   xmlns:cc="http://creativecommons.org/ns#"
   xmlns:rdf="http://www.w3.org/1999/02/22-rdf-syntax-ns#"
   xmlns:svg="http://www.w3.org/2000/svg"
   xmlns="http://www.w3.org/2000/svg"
   xmlns:xlink="http://www.w3.org/1999/xlink"
   xmlns:sodipodi="http://sodipodi.sourceforge.net/DTD/sodipodi-0.dtd"
   xmlns:inkscape="http://www.inkscape.org/namespaces/inkscape"
   width="400"
   height="450"
   id="svg3408"
   sodipodi:version="0.32"
   inkscape:version="0.46"
   version="1.0"
   sodipodi:docbase="/home/kdedev/kde/src/playground/games/kblocks/themes"
   sodipodi:docname="bw_theme.svg"
   inkscape:output_extension="org.inkscape.output.svg.inkscape"
   inkscape:export-filename="/home/kdedev/kde/src/playground/games/kblocks/themes/bw_preview.png"
   inkscape:export-xdpi="45"
   inkscape:export-ydpi="45"
   sodipodi:modified="true">
  <defs
     id="defs3410">
    <linearGradient
       inkscape:collect="always"
       id="linearGradient6241">
      <stop
         style="stop-color:#ffffff;stop-opacity:1;"
         offset="0"
         id="stop6243" />
      <stop
         style="stop-color:#ffffff;stop-opacity:0;"
         offset="1"
         id="stop6245" />
    </linearGradient>
    <linearGradient
       inkscape:collect="always"
       id="linearGradient4762">
      <stop
         style="stop-color:#eeeeec;stop-opacity:1;"
         offset="0"
         id="stop4764" />
      <stop
         style="stop-color:#d3d7cf;stop-opacity:1"
         offset="1"
         id="stop4766" />
    </linearGradient>
    <linearGradient
       inkscape:collect="always"
       id="linearGradient4743">
      <stop
         style="stop-color:#555753;stop-opacity:1;"
         offset="0"
         id="stop4745" />
      <stop
         style="stop-color:#555753;stop-opacity:0;"
         offset="1"
         id="stop4747" />
    </linearGradient>
    <inkscape:perspective
       sodipodi:type="inkscape:persp3d"
       inkscape:vp_x="0 : 225 : 1"
       inkscape:vp_y="0 : 1000 : 0"
       inkscape:vp_z="400 : 225 : 1"
       inkscape:persp3d-origin="200 : 150 : 1"
       id="perspective3647" />
    <linearGradient
       inkscape:collect="always"
       xlink:href="#linearGradient4743"
       id="linearGradient4749"
       x1="484.13705"
       y1="20.246811"
       x2="484.13705"
       y2="21.452868"
       gradientUnits="userSpaceOnUse"
       gradientTransform="matrix(1,0,0,1.3236946,0,-6.3442151)" />
    <linearGradient
       inkscape:collect="always"
       xlink:href="#linearGradient4743"
       id="linearGradient4753"
       gradientUnits="userSpaceOnUse"
       gradientTransform="matrix(1,0,0,-1.3236919,0,135.17119)"
       x1="484.13705"
       y1="20.246811"
       x2="484.13705"
       y2="21.452868" />
    <radialGradient
       inkscape:collect="always"
       xlink:href="#linearGradient4762"
       id="radialGradient4778"
       cx="431.21274"
       cy="35.328846"
       fx="431.21274"
       fy="35.328846"
       r="52.783298"
       gradientTransform="matrix(1.9080404,1.0118529,-0.7183006,1.3544919,-366.18187,-443.91805)"
       gradientUnits="userSpaceOnUse" />
    <linearGradient
       inkscape:collect="always"
       xlink:href="#linearGradient6241"
       id="linearGradient6247"
       x1="-84.492416"
       y1="-7.7826872"
       x2="150.97826"
       y2="198.60042"
       gradientUnits="userSpaceOnUse" />
    <linearGradient
       inkscape:collect="always"
       xlink:href="#linearGradient6241"
       id="linearGradient6255"
       gradientUnits="userSpaceOnUse"
       x1="-84.492416"
       y1="-7.7826872"
       x2="150.97826"
       y2="198.60042"
       gradientTransform="matrix(0.2612247,0,0,0.1920512,430.46525,20.761524)" />
  </defs>
  <sodipodi:namedview
     id="base"
     pagecolor="#ffffff"
     bordercolor="#666666"
     borderopacity="1.0"
     gridtolerance="10000"
     guidetolerance="10"
     objecttolerance="10"
     inkscape:pageopacity="0.0"
     inkscape:pageshadow="2"
     inkscape:zoom="11.551333"
     inkscape:cx="435.91769"
     inkscape:cy="281.59109"
     inkscape:document-units="px"
     inkscape:current-layer="layer1"
     width="400px"
     height="450px"
     inkscape:window-width="1024"
     inkscape:window-height="700"
     inkscape:window-x="0"
     inkscape:window-y="0"
     showgrid="false" />
  <metadata
     id="metadata3413">
    <rdf:RDF>
      <cc:Work
         rdf:about="">
        <dc:format>image/svg+xml</dc:format>
        <dc:type
           rdf:resource="http://purl.org/dc/dcmitype/StillImage" />
      </cc:Work>
    </rdf:RDF>
  </metadata>
  <g
     inkscape:label="Layer 1"
     inkscape:groupmode="layer"
     id="layer1">
    <g
       id="VIEW"
       inkscape:label="#FIELD_AREA">
      <path
         style="font-size:20.19168472px;font-style:normal;font-variant:normal;font-weight:normal;font-stretch:normal;text-align:start;line-height:100%;writing-mode:lr-tb;text-anchor:start;opacity:0.2;fill:#babdb6;fill-opacity:1;stroke:none;stroke-width:1px;stroke-linecap:butt;stroke-linejoin:miter;stroke-opacity:1;font-family:Nimbus Mono L;-inkscape-font-specification:Nimbus Mono L"
         d="M 27.47983,171.37628 L 27.47983,160.83623 L 28.16635,160.83623 C 28.5298,160.83623 28.71152,160.69488 28.71152,160.43239 C 28.71152,160.14971 28.5298,160.00837 28.16635,160.00837 L 25.15779,160.00837 C 24.77414,160.00837 24.59242,160.14971 24.59242,160.43239 C 24.59242,160.69488 24.77414,160.83623 25.15779,160.83623 L 26.65197,160.83623 L 26.65197,170.18498 L 20.49351,160.00837 L 18.35319,160.00837 C 18.00993,160.00837 17.80801,160.14971 17.80801,160.43239 C 17.80801,160.69488 18.00993,160.83623 18.35319,160.83623 L 19.44354,160.83623 L 19.44354,170.54843 L 18.75702,170.54843 C 18.39357,170.54843 18.21185,170.68977 18.21185,170.95226 C 18.21185,171.23494 18.39357,171.37628 18.75702,171.37628 L 21.76558,171.37628 C 22.10884,171.37628 22.33095,171.23494 22.33095,170.95226 C 22.33095,170.68977 22.14922,170.54843 21.76558,170.54843 L 20.2714,170.54843 L 20.2714,161.19968 L 26.42986,171.37628 L 27.47983,171.37628 M 39.9504,167.35814 C 39.9504,166.42932 39.91002,166.02549 39.60714,165.37935 C 38.90044,163.70345 37.2851,162.67367 35.3467,162.67367 C 32.76217,162.67367 30.74299,164.53131 30.74299,166.99469 C 30.74299,169.61961 32.90351,171.69935 35.62938,171.69935 C 37.46682,171.69935 39.88983,170.73015 39.88983,170.04363 C 39.88983,169.84172 39.7081,169.6398 39.52638,169.6398 C 39.40523,169.6398 39.32446,169.68018 39.18312,169.78114 C 38.37545,170.42727 36.90146,170.87149 35.64957,170.87149 C 33.46887,170.87149 31.85354,169.49846 31.57085,167.35814 L 39.9504,167.35814 M 31.57085,166.53028 C 31.9545,164.65246 33.38811,163.50153 35.3467,163.50153 C 37.30529,163.50153 38.79948,164.69284 39.12254,166.53028 L 31.57085,166.53028 M 48.22111,166.9745 L 51.512347,163.78421 L 51.653687,163.78421 C 52.017137,163.78421 52.178677,163.64287 52.178677,163.36019 C 52.178677,163.09769 52.017137,162.95635 51.653687,162.95635 L 49.4528,162.95635 C 49.06916,162.95635 48.88743,163.09769 48.88743,163.36019 C 48.88743,163.64287 49.06916,163.78421 49.4528,163.78421 L 50.401807,163.78421 L 47.63555,166.40913 L 44.92986,163.78421 L 45.85868,163.78421 C 46.24232,163.78421 46.40385,163.64287 46.40385,163.36019 C 46.40385,163.0775 46.24232,162.95635 45.85868,162.95635 L 43.6174,162.95635 C 43.25395,162.95635 43.07223,163.09769 43.07223,163.36019 C 43.07223,163.64287 43.25395,163.78421 43.6174,163.78421 L 43.75874,163.78421 L 47.04999,166.9745 L 43.33472,170.54843 L 43.15299,170.54843 C 42.76935,170.54843 42.60782,170.68977 42.60782,170.95226 C 42.60782,171.23494 42.76935,171.37628 43.15299,171.37628 L 45.83849,171.37628 C 46.20194,171.37628 46.38366,171.23494 46.38366,170.95226 C 46.38366,170.68977 46.20194,170.54843 45.83849,170.54843 L 44.46545,170.54843 L 47.63555,167.51967 L 50.765257,170.54843 L 49.4528,170.54843 C 49.10954,170.54843 48.90762,170.68977 48.90762,170.95226 C 48.90762,171.23494 49.10954,171.37628 49.4528,171.37628 L 52.118097,171.37628 C 52.481547,171.37628 52.663277,171.23494 52.663277,170.95226 C 52.663277,170.68977 52.481547,170.54843 52.118097,170.54843 L 51.936377,170.54843 L 48.22111,166.9745 M 57.662927,162.95635 L 57.662927,160.55354 C 57.662927,160.1699 57.541777,160.00837 57.238897,160.00837 C 56.936027,160.00837 56.814877,160.21028 56.814877,160.55354 L 56.814877,162.95635 L 55.320687,162.95635 C 54.937047,162.95635 54.755317,163.09769 54.755317,163.36019 C 54.755317,163.64287 54.937047,163.78421 55.320687,163.78421 L 56.814877,163.78421 L 56.814877,169.21577 C 56.814877,170.73015 58.046567,171.69935 59.924387,171.69935 C 61.640687,171.69935 63.942537,170.93207 63.942537,170.34651 C 63.942537,170.14459 63.781007,169.92248 63.579087,169.92248 C 63.478127,169.92248 63.417557,169.96287 63.276207,170.04363 C 62.448357,170.52823 61.034937,170.87149 59.904197,170.87149 C 58.510977,170.87149 57.662927,170.20517 57.662927,169.17539 L 57.662927,163.78421 L 62.084897,163.78421 C 62.448347,163.78421 62.630077,163.64287 62.630077,163.36019 C 62.630077,163.09769 62.448347,162.95635 62.084897,162.95635 L 57.662927,162.95635"
         id="path6096" />
      <path
         style="opacity:0.2;fill:none;fill-rule:evenodd;stroke:#babdb6;stroke-width:4;stroke-linecap:round;stroke-linejoin:miter;stroke-miterlimit:4;stroke-dasharray:none;stroke-opacity:1"
         d="M 145.48604,30.337012 L 147.93224,430.57469 L 353.41315,430.57469 L 353.41315,31.579986"
         id="path6092" />
      <path
         id="path4780"
         d="M 140.22024,27.2058 L 142.66644,427.44345 L 348.14735,427.44345 L 348.14735,28.448774"
         style="fill:none;fill-rule:evenodd;stroke:#babdb6;stroke-width:4;stroke-linecap:round;stroke-linejoin:miter;stroke-miterlimit:4;stroke-dasharray:none;stroke-opacity:1;opacity:0.5" />
      <rect
         style="opacity:0.5;fill:none;fill-opacity:1;stroke:#babdb6;stroke-width:3.99999976;stroke-miterlimit:4;stroke-dasharray:none;stroke-opacity:1"
         id="rect4782"
         width="98.662209"
         height="98.662209"
         x="13.71003"
         y="177.62772" />
      <rect
         y="175.5527"
         x="15.552711"
         height="98.894577"
         width="98.894577"
         id="rect5383"
         style="opacity:1;fill:none;fill-opacity:1;stroke:#ffaa00;stroke-width:2;stroke-opacity:1;stroke-miterlimit:4;stroke-dasharray:none" />
      <rect
         y="3.8146973e-06"
         x="0"
         height="450"
         width="400"
         id="rect7353"
         style="opacity:1;fill:none;fill-opacity:1;stroke:none;stroke-opacity:1" />
      <path
         style="fill:none;fill-rule:evenodd;stroke:#ffaa00;stroke-width:2;stroke-linecap:round;stroke-linejoin:miter;stroke-opacity:1;stroke-miterlimit:4;stroke-dasharray:none"
         d="M 136.64171,23.627272 L 139.17211,431.02199 L 351.72587,431.02199 L 351.72587,24.892473"
         id="path4737" />
      <path
         id="path4789"
         d="M 24.724282,170.03432 L 24.724282,159.49427 L 25.410802,159.49427 C 25.774252,159.49427 25.955972,159.35292 25.955972,159.09043 C 25.955972,158.80775 25.774252,158.66641 25.410802,158.66641 L 22.402242,158.66641 C 22.018592,158.66641 21.836872,158.80775 21.836872,159.09043 C 21.836872,159.35292 22.018592,159.49427 22.402242,159.49427 L 23.896422,159.49427 L 23.896422,168.84302 L 17.737962,158.66641 L 15.597642,158.66641 C 15.254382,158.66641 15.052462,158.80775 15.052462,159.09043 C 15.052462,159.35292 15.254382,159.49427 15.597642,159.49427 L 16.687992,159.49427 L 16.687992,169.20647 L 16.001472,169.20647 C 15.638022,169.20647 15.456302,169.34781 15.456302,169.6103 C 15.456302,169.89298 15.638022,170.03432 16.001472,170.03432 L 19.010032,170.03432 C 19.353292,170.03432 19.575402,169.89298 19.575402,169.6103 C 19.575402,169.34781 19.393672,169.20647 19.010032,169.20647 L 17.515852,169.20647 L 17.515852,159.85772 L 23.674312,170.03432 L 24.724282,170.03432 M 37.194852,166.01618 C 37.194852,165.08736 37.154472,164.68353 36.851592,164.03739 C 36.144892,162.36149 34.529552,161.33171 32.591152,161.33171 C 30.006622,161.33171 27.987442,163.18935 27.987442,165.65273 C 27.987442,168.27765 30.147962,170.35739 32.873832,170.35739 C 34.711272,170.35739 37.134282,169.38819 37.134282,168.70167 C 37.134282,168.49976 36.952552,168.29784 36.770832,168.29784 C 36.649682,168.29784 36.568912,168.33822 36.427572,168.43918 C 35.619902,169.08531 34.145912,169.52953 32.894022,169.52953 C 30.713322,169.52953 29.097992,168.1565 28.815302,166.01618 L 37.194852,166.01618 M 28.815302,165.18832 C 29.198952,163.3105 30.632562,162.15957 32.591152,162.15957 C 34.549742,162.15957 36.043932,163.35088 36.366992,165.18832 L 28.815302,165.18832 M 45.465562,165.63254 L 48.756799,162.44225 L 48.898139,162.44225 C 49.261589,162.44225 49.423129,162.30091 49.423129,162.01823 C 49.423129,161.75573 49.261589,161.61439 48.898139,161.61439 L 46.697252,161.61439 C 46.313612,161.61439 46.131882,161.75573 46.131882,162.01823 C 46.131882,162.30091 46.313612,162.44225 46.697252,162.44225 L 47.646259,162.44225 L 44.880002,165.06717 L 42.174312,162.44225 L 43.103132,162.44225 C 43.486772,162.44225 43.648302,162.30091 43.648302,162.01823 C 43.648302,161.73554 43.486772,161.61439 43.103132,161.61439 L 40.861852,161.61439 C 40.498402,161.61439 40.316682,161.75573 40.316682,162.01823 C 40.316682,162.30091 40.498402,162.44225 40.861852,162.44225 L 41.003192,162.44225 L 44.294442,165.63254 L 40.579172,169.20647 L 40.397442,169.20647 C 40.013802,169.20647 39.852272,169.34781 39.852272,169.6103 C 39.852272,169.89298 40.013802,170.03432 40.397442,170.03432 L 43.082942,170.03432 C 43.446392,170.03432 43.628112,169.89298 43.628112,169.6103 C 43.628112,169.34781 43.446392,169.20647 43.082942,169.20647 L 41.709902,169.20647 L 44.880002,166.17771 L 48.009709,169.20647 L 46.697252,169.20647 C 46.353992,169.20647 46.152072,169.34781 46.152072,169.6103 C 46.152072,169.89298 46.353992,170.03432 46.697252,170.03432 L 49.362549,170.03432 C 49.725999,170.03432 49.907729,169.89298 49.907729,169.6103 C 49.907729,169.34781 49.725999,169.20647 49.362549,169.20647 L 49.180829,169.20647 L 45.465562,165.63254 M 54.907379,161.61439 L 54.907379,159.21158 C 54.907379,158.82794 54.786229,158.66641 54.483349,158.66641 C 54.180479,158.66641 54.059329,158.86832 54.059329,159.21158 L 54.059329,161.61439 L 52.565139,161.61439 C 52.181499,161.61439 51.999769,161.75573 51.999769,162.01823 C 51.999769,162.30091 52.181499,162.44225 52.565139,162.44225 L 54.059329,162.44225 L 54.059329,167.87381 C 54.059329,169.38819 55.291019,170.35739 57.168839,170.35739 C 58.885139,170.35739 61.186989,169.59011 61.186989,169.00455 C 61.186989,168.80263 61.025459,168.58052 60.823539,168.58052 C 60.722579,168.58052 60.662009,168.62091 60.520659,168.70167 C 59.692809,169.18627 58.279389,169.52953 57.148649,169.52953 C 55.755429,169.52953 54.907379,168.86321 54.907379,167.83343 L 54.907379,162.44225 L 59.329349,162.44225 C 59.692799,162.44225 59.874529,162.30091 59.874529,162.01823 C 59.874529,161.75573 59.692799,161.61439 59.329349,161.61439 L 54.907379,161.61439"
         style="font-size:20.19168472px;font-style:normal;font-variant:normal;font-weight:normal;font-stretch:normal;text-align:start;line-height:100%;writing-mode:lr-tb;text-anchor:start;opacity:0.5;fill:#babdb6;fill-opacity:1;stroke:none;stroke-width:1px;stroke-linecap:butt;stroke-linejoin:miter;stroke-opacity:1;font-family:Nimbus Mono L;-inkscape-font-specification:Nimbus Mono L" />
      <path
         style="font-size:20.19168472000000136px;font-style:normal;font-variant:normal;font-weight:normal;font-stretch:normal;text-align:start;line-height:100%;writing-mode:lr-tb;text-anchor:start;fill:#ffaa00;fill-opacity:1;stroke:none;stroke-width:1px;stroke-linecap:butt;stroke-linejoin:miter;stroke-opacity:1;font-family:Nimbus Mono L;-inkscape-font-specification:Nimbus Mono L"
         d="M 24.336926,167.87448 L 24.336926,157.33443 L 25.023446,157.33443 C 25.386896,157.33443 25.568616,157.19308 25.568616,156.93059 C 25.568616,156.64791 25.386896,156.50657 25.023446,156.50657 L 22.014886,156.50657 C 21.631236,156.50657 21.449516,156.64791 21.449516,156.93059 C 21.449516,157.19308 21.631236,157.33443 22.014886,157.33443 L 23.509066,157.33443 L 23.509066,166.68318 L 17.350606,156.50657 L 15.210286,156.50657 C 14.867026,156.50657 14.665106,156.64791 14.665106,156.93059 C 14.665106,157.19308 14.867026,157.33443 15.210286,157.33443 L 16.300636,157.33443 L 16.300636,167.04663 L 15.614116,167.04663 C 15.250666,167.04663 15.068946,167.18797 15.068946,167.45046 C 15.068946,167.73314 15.250666,167.87448 15.614116,167.87448 L 18.622676,167.87448 C 18.965936,167.87448 19.188046,167.73314 19.188046,167.45046 C 19.188046,167.18797 19.006316,167.04663 18.622676,167.04663 L 17.128496,167.04663 L 17.128496,157.69788 L 23.286956,167.87448 L 24.336926,167.87448 M 36.807496,163.85634 C 36.807496,162.92752 36.767116,162.52369 36.464236,161.87755 C 35.757536,160.20165 34.142196,159.17187 32.203796,159.17187 C 29.619266,159.17187 27.600086,161.02951 27.600086,163.49289 C 27.600086,166.11781 29.760606,168.19755 32.486476,168.19755 C 34.323916,168.19755 36.746926,167.22835 36.746926,166.54183 C 36.746926,166.33992 36.565196,166.138 36.383476,166.138 C 36.262326,166.138 36.181556,166.17838 36.040216,166.27934 C 35.232546,166.92547 33.758556,167.36969 32.506666,167.36969 C 30.325966,167.36969 28.710636,165.99666 28.427946,163.85634 L 36.807496,163.85634 M 28.427946,163.02848 C 28.811596,161.15066 30.245206,159.99973 32.203796,159.99973 C 34.162386,159.99973 35.656576,161.19104 35.979636,163.02848 L 28.427946,163.02848 M 45.078206,163.4727 L 48.369449,160.28241 L 48.510789,160.28241 C 48.874239,160.28241 49.035779,160.14107 49.035779,159.85839 C 49.035779,159.59589 48.874239,159.45455 48.510789,159.45455 L 46.309896,159.45455 C 45.926256,159.45455 45.744526,159.59589 45.744526,159.85839 C 45.744526,160.14107 45.926256,160.28241 46.309896,160.28241 L 47.258909,160.28241 L 44.492646,162.90733 L 41.786956,160.28241 L 42.715776,160.28241 C 43.099416,160.28241 43.260946,160.14107 43.260946,159.85839 C 43.260946,159.5757 43.099416,159.45455 42.715776,159.45455 L 40.474496,159.45455 C 40.111046,159.45455 39.929326,159.59589 39.929326,159.85839 C 39.929326,160.14107 40.111046,160.28241 40.474496,160.28241 L 40.615836,160.28241 L 43.907086,163.4727 L 40.191816,167.04663 L 40.010086,167.04663 C 39.626446,167.04663 39.464916,167.18797 39.464916,167.45046 C 39.464916,167.73314 39.626446,167.87448 40.010086,167.87448 L 42.695586,167.87448 C 43.059036,167.87448 43.240756,167.73314 43.240756,167.45046 C 43.240756,167.18797 43.059036,167.04663 42.695586,167.04663 L 41.322546,167.04663 L 44.492646,164.01787 L 47.622359,167.04663 L 46.309896,167.04663 C 45.966636,167.04663 45.764716,167.18797 45.764716,167.45046 C 45.764716,167.73314 45.966636,167.87448 46.309896,167.87448 L 48.975199,167.87448 C 49.338649,167.87448 49.520379,167.73314 49.520379,167.45046 C 49.520379,167.18797 49.338649,167.04663 48.975199,167.04663 L 48.793479,167.04663 L 45.078206,163.4727 M 54.520029,159.45455 L 54.520029,157.05174 C 54.520029,156.6681 54.398879,156.50657 54.095999,156.50657 C 53.793129,156.50657 53.671979,156.70848 53.671979,157.05174 L 53.671979,159.45455 L 52.177789,159.45455 C 51.794149,159.45455 51.612419,159.59589 51.612419,159.85839 C 51.612419,160.14107 51.794149,160.28241 52.177789,160.28241 L 53.671979,160.28241 L 53.671979,165.71397 C 53.671979,167.22835 54.903669,168.19755 56.781489,168.19755 C 58.497789,168.19755 60.799639,167.43027 60.799639,166.84471 C 60.799639,166.64279 60.638109,166.42068 60.436189,166.42068 C 60.335229,166.42068 60.274659,166.46107 60.133309,166.54183 C 59.305459,167.02643 57.892039,167.36969 56.761299,167.36969 C 55.368079,167.36969 54.520029,166.70337 54.520029,165.67359 L 54.520029,160.28241 L 58.941999,160.28241 C 59.305449,160.28241 59.487179,160.14107 59.487179,159.85839 C 59.487179,159.59589 59.305449,159.45455 58.941999,159.45455 L 54.520029,159.45455"
         id="text4784" />
      <rect
         y="179.41541"
         x="19.674507"
         height="99.64164"
         width="99.64164"
         id="rect6094"
         style="opacity:0.2;fill:none;fill-opacity:1;stroke:#babdb6;stroke-width:4;stroke-miterlimit:4;stroke-dasharray:none;stroke-opacity:1" />
      <path
         style="fill:url(#linearGradient6247);fill-opacity:1;fill-rule:nonzero;stroke:none;stroke-width:1;stroke-linecap:round;stroke-linejoin:miter;stroke-miterlimit:4;stroke-dashoffset:0;stroke-opacity:1;opacity:0.4"
         d="M 20.776824,10.916465 L 380.90843,10.916465 C 387.04729,10.916465 391.9894,15.858579 391.9894,21.997437 C 276.67503,268.73869 163.29522,-130.16803 20.776824,441.68926 C 14.637965,441.68926 9.6958513,436.74715 9.6958513,430.60829 L 9.6958513,21.997437 C 9.6958513,15.858579 14.637965,10.916465 20.776824,10.916465 z"
         id="rect6230"
         sodipodi:nodetypes="ccccccc" />
    </g>
    <g
       id="BLOCK_0"
       transform="translate(0,40.258449)">
      <path
         id="path4586"
         d="M 421.68892,110.51198 L 440.73654,110.51198 L 440.73654,129.5596 L 421.68892,129.5596 L 421.68892,110.51198 z"
         style="fill:#888888;fill-opacity:1;stroke:#bbbbbb;stroke-width:0.95238084000000001;stroke-opacity:1;opacity:0.29999999999999999"
         inkscape:label="#BLOCK_SIZE" />
      <path
         style="opacity:1;fill:#2e3436;fill-opacity:0.94117647;fill-rule:nonzero;stroke:none;stroke-width:0.5;stroke-linecap:butt;stroke-linejoin:miter;stroke-miterlimit:4;stroke-dasharray:none;stroke-dashoffset:0;stroke-opacity:1"
         d="M 423.15696,111.94046 L 423.15696,115.38972 L 426.60621,115.38972 L 426.60621,111.94046 L 423.15696,111.94046 z M 427.27467,111.94046 L 427.27467,115.38972 L 430.72392,115.38972 L 430.72392,111.94046 L 427.27467,111.94046 z M 431.4726,111.94046 L 431.4726,115.38972 L 434.92185,115.38972 L 434.92185,111.94046 L 431.4726,111.94046 z M 435.64379,111.94046 L 435.64379,115.38972 L 439.09304,115.38972 L 439.09304,111.94046 L 435.64379,111.94046 z M 423.98585,112.76935 L 425.80406,112.76935 L 425.80406,114.58757 L 423.98585,114.58757 L 423.98585,112.76935 z M 428.10356,112.76935 L 429.92177,112.76935 L 429.92177,114.58757 L 428.10356,114.58757 L 428.10356,112.76935 z M 432.30149,112.76935 L 434.1197,112.76935 L 434.1197,114.58757 L 432.30149,114.58757 L 432.30149,112.76935 z M 436.47268,112.76935 L 438.29089,112.76935 L 438.29089,114.58757 L 436.47268,114.58757 L 436.47268,112.76935 z"
         id="path4588" />
      <path
         style="fill:#0f1111;fill-opacity:0.94117647;fill-rule:nonzero;stroke:none;stroke-width:0.5;stroke-linecap:butt;stroke-linejoin:miter;stroke-miterlimit:4;stroke-dasharray:none;stroke-dashoffset:0;stroke-opacity:1"
         d="M 423.15696,116.11165 L 423.15696,119.56091 L 426.60621,119.56091 L 426.60621,116.11165 L 423.15696,116.11165 z M 427.27467,116.11165 L 427.27467,119.56091 L 430.72392,119.56091 L 430.72392,116.11165 L 427.27467,116.11165 z M 431.4726,116.11165 L 431.4726,119.56091 L 434.92185,119.56091 L 434.92185,116.11165 L 431.4726,116.11165 z M 435.64379,116.11165 L 435.64379,119.56091 L 439.09304,119.56091 L 439.09304,116.11165 L 435.64379,116.11165 z M 423.98585,116.94054 L 425.80406,116.94054 L 425.80406,118.75875 L 423.98585,118.75875 L 423.98585,116.94054 z M 436.47268,116.94054 L 438.29089,116.94054 L 438.29089,118.75875 L 436.47268,118.75875 L 436.47268,116.94054 z"
         id="path4590" />
      <path
         style="fill:#0f1111;fill-opacity:0.94117647;fill-rule:nonzero;stroke:none;stroke-width:0.5;stroke-linecap:butt;stroke-linejoin:miter;stroke-miterlimit:4;stroke-dasharray:none;stroke-dashoffset:0;stroke-opacity:1"
         d="M 423.15696,120.28284 L 423.15696,123.7321 L 426.60621,123.7321 L 426.60621,120.28284 L 423.15696,120.28284 z M 427.27467,120.28284 L 427.27467,123.7321 L 430.72392,123.7321 L 430.72392,120.28284 L 427.27467,120.28284 z M 431.4726,120.28284 L 431.4726,123.7321 L 434.92185,123.7321 L 434.92185,120.28284 L 431.4726,120.28284 z M 435.64379,120.28284 L 435.64379,123.7321 L 439.09304,123.7321 L 439.09304,120.28284 L 435.64379,120.28284 z M 423.98585,121.11173 L 425.80406,121.11173 L 425.80406,122.92994 L 423.98585,122.92994 L 423.98585,121.11173 z M 436.47268,121.11173 L 438.29089,121.11173 L 438.29089,122.92994 L 436.47268,122.92994 L 436.47268,121.11173 z"
         id="path4592" />
      <path
         style="fill:#2e3436;fill-opacity:0.94117647;fill-rule:nonzero;stroke:none;stroke-width:0.5;stroke-linecap:butt;stroke-linejoin:miter;stroke-miterlimit:4;stroke-dasharray:none;stroke-dashoffset:0;stroke-opacity:1"
         d="M 423.15696,124.45403 L 423.15696,127.90329 L 426.60621,127.90329 L 426.60621,124.45403 L 423.15696,124.45403 z M 427.27467,124.45403 L 427.27467,127.90329 L 430.72392,127.90329 L 430.72392,124.45403 L 427.27467,124.45403 z M 431.4726,124.45403 L 431.4726,127.90329 L 434.92185,127.90329 L 434.92185,124.45403 L 431.4726,124.45403 z M 435.64379,124.45403 L 435.64379,127.90329 L 439.09304,127.90329 L 439.09304,124.45403 L 435.64379,124.45403 z M 423.98585,125.28292 L 425.80406,125.28292 L 425.80406,127.10113 L 423.98585,127.10113 L 423.98585,125.28292 z M 428.10356,125.28292 L 429.92177,125.28292 L 429.92177,127.10113 L 428.10356,127.10113 L 428.10356,125.28292 z M 432.30149,125.28292 L 434.1197,125.28292 L 434.1197,127.10113 L 432.30149,127.10113 L 432.30149,125.28292 z M 436.47268,125.28292 L 438.29089,125.28292 L 438.29089,127.10113 L 436.47268,127.10113 L 436.47268,125.28292 z"
         id="path4594" />
    </g>
    <use
       x="0"
       y="0"
       xlink:href="#BLOCK_0"
       id="BLOCK_1"
       width="400"
       height="450"
       transform="translate(20,0)" />
    <use
       x="0"
       y="0"
       xlink:href="#BLOCK_0"
       id="BLOCK_2"
       width="400"
       height="450"
       transform="translate(40,0)" />
    <use
       x="0"
       y="0"
       xlink:href="#BLOCK_0"
       id="BLOCK_3"
       width="400"
       height="450"
       transform="translate(60,0)" />
    <use
       x="0"
       y="0"
       xlink:href="#BLOCK_0"
       id="BLOCK_4"
       width="400"
       height="450"
       transform="translate(80,0)" />
    <use
       x="0"
       y="0"
       xlink:href="#BLOCK_0"
       id="BLOCK_5"
       width="400"
       height="450"
       transform="translate(100,0)" />
    <use
       x="0"
       y="0"
       xlink:href="#BLOCK_0"
       id="BLOCK_6"
       width="400"
       height="450"
       transform="translate(120,0)" />
    <g
       id="BLOCK_OUT_0"
       transform="translate(0,62.258449)">
      <path
         style="fill:#888888;fill-opacity:1;stroke:#bbbbbb;stroke-width:0.95238084000000001;stroke-opacity:1;opacity:0.40000000000000002"
         d="M 421.68892,110.51198 L 440.73654,110.51198 L 440.73654,129.5596 L 421.68892,129.5596 L 421.68892,110.51198 z"
         id="path4638"
         inkscape:label="#BLOCK_SIZE" />
      <path
         style="opacity:1;fill:#2e3436;fill-opacity:0.94117647;fill-rule:nonzero;stroke:none;stroke-width:0.5;stroke-linecap:butt;stroke-linejoin:miter;stroke-miterlimit:4;stroke-dasharray:none;stroke-dashoffset:0;stroke-opacity:1"
         d="M 423.28164,112.05691 L 423.28164,115.45219 L 426.67692,115.45219 L 426.67692,112.05691 L 423.28164,112.05691 z M 427.33492,112.05691 L 427.33492,115.45219 L 430.7302,115.45219 L 430.7302,112.05691 L 427.33492,112.05691 z M 431.46716,112.05691 L 431.46716,115.45219 L 434.86244,115.45219 L 434.86244,112.05691 L 431.46716,112.05691 z M 435.57308,112.05691 L 435.57308,115.45219 L 438.96836,115.45219 L 438.96836,112.05691 L 435.57308,112.05691 z M 423.28164,116.16283 L 423.28164,119.55811 L 426.67692,119.55811 L 426.67692,116.16283 L 423.28164,116.16283 z M 435.57308,116.16283 L 435.57308,119.55811 L 438.96836,119.55811 L 438.96836,116.16283 L 435.57308,116.16283 z M 423.28164,120.26875 L 423.28164,123.66402 L 426.67692,123.66402 L 426.67692,120.26875 L 423.28164,120.26875 z M 435.57308,120.26875 L 435.57308,123.66402 L 438.96836,123.66402 L 438.96836,120.26875 L 435.57308,120.26875 z M 423.28164,124.37466 L 423.28164,127.76994 L 426.67692,127.76994 L 426.67692,124.37466 L 423.28164,124.37466 z M 427.33492,124.37466 L 427.33492,127.76994 L 430.7302,127.76994 L 430.7302,124.37466 L 427.33492,124.37466 z M 431.46716,124.37466 L 431.46716,127.76994 L 434.86244,127.76994 L 434.86244,124.37466 L 431.46716,124.37466 z M 435.57308,124.37466 L 435.57308,127.76994 L 438.96836,127.76994 L 438.96836,124.37466 L 435.57308,124.37466 z"
         id="path4702" />
      <path
         style="fill:#0f1111;fill-opacity:0.94117647;fill-rule:nonzero;stroke:none;stroke-width:0.5;stroke-linecap:butt;stroke-linejoin:miter;stroke-miterlimit:4;stroke-dasharray:none;stroke-dashoffset:0;stroke-opacity:1"
         d="M 427.33492,116.16283 L 427.33492,119.55811 L 430.7302,119.55811 L 430.7302,116.16283 L 427.33492,116.16283 z M 431.3882,116.16283 L 431.3882,119.55811 L 434.8098,119.55811 L 434.8098,116.16283 L 431.3882,116.16283 z M 428.12452,116.97875 L 429.91428,116.97875 L 429.91428,118.76851 L 428.12452,118.76851 L 428.12452,116.97875 z M 432.20412,116.97875 L 433.99388,116.97875 L 433.99388,118.76851 L 432.20412,118.76851 L 432.20412,116.97875 z M 427.33492,120.26875 L 427.33492,123.66402 L 430.7302,123.66402 L 430.7302,120.26875 L 427.33492,120.26875 z M 431.46716,120.26875 L 431.46716,123.66402 L 434.86244,123.66402 L 434.86244,120.26875 L 431.46716,120.26875 z M 428.12452,121.08467 L 429.91428,121.08467 L 429.91428,122.87442 L 428.12452,122.87442 L 428.12452,121.08467 z M 432.28308,121.08467 L 434.07284,121.08467 L 434.07284,122.87442 L 432.28308,122.87442 L 432.28308,121.08467 z"
         id="path4684" />
    </g>
    <use
       x="0"
       y="0"
       xlink:href="#BLOCK_OUT_0"
       id="BLOCK_OUT_1"
       width="400"
       height="450"
       transform="translate(20,0)" />
    <use
       x="0"
       y="0"
       xlink:href="#BLOCK_OUT_0"
       id="BLOCK_OUT_2"
       width="400"
       height="450"
       transform="translate(40,0)" />
    <use
       x="0"
       y="0"
       xlink:href="#BLOCK_OUT_0"
       id="BLOCK_OUT_3"
       width="400"
       height="450"
       transform="translate(60,0)" />
    <use
       x="0"
       y="0"
       xlink:href="#BLOCK_OUT_0"
       id="BLOCK_OUT_4"
       width="400"
       height="450"
       transform="translate(80,0)" />
    <use
       x="0"
       y="0"
       xlink:href="#BLOCK_OUT_0"
       id="BLOCK_OUT_5"
       width="400"
       height="450"
       transform="translate(100,0)" />
    <use
       x="0"
       y="0"
       xlink:href="#BLOCK_OUT_0"
       id="BLOCK_OUT_6"
       width="400"
       height="450"
       transform="translate(120,0)" />
    <g
       id="BACKGROUND">
      <path
         id="path4760"
         d="M 431.21274,20.57654 L 536.77934,20.57654 L 536.77934,108.2505 L 431.21274,108.2505 L 431.21274,20.57654 z"
         style="fill:url(#radialGradient4778);fill-opacity:1;stroke:none;stroke-opacity:1" />
      <path
         style="fill:url(#linearGradient4749);fill-opacity:1;stroke:none;stroke-opacity:1"
         d="M 431.21274,20.89284 L 536.77934,20.89284 L 536.77934,22.226717 L 431.21274,22.226717 L 431.21274,20.89284 z"
         id="path4741" />
      <path
         id="path4751"
         d="M 431.21274,107.9342 L 536.77934,107.9342 L 536.77934,106.60032 L 431.21274,106.60032 L 431.21274,107.9342 z"
         style="fill:url(#linearGradient4753);fill-opacity:1;stroke:none;stroke-opacity:1" />
      <path
         style="opacity:1;fill:url(#linearGradient6255);fill-opacity:1;fill-rule:nonzero;stroke:none;stroke-width:1;stroke-linecap:round;stroke-linejoin:miter;stroke-miterlimit:4;stroke-dashoffset:0;stroke-opacity:1"
         d="M 435.89267,22.858043 L 529.96793,22.858043 C 531.57156,22.858043 532.86256,23.807183 532.86256,24.986158 C 502.7396,72.373108 473.122,-4.2374016 435.89267,105.58847 C 434.28905,105.58847 432.99804,104.63934 432.99804,103.46036 L 432.99804,24.986158 C 432.99804,23.807183 434.28905,22.858043 435.89267,22.858043 z"
         id="path6253"
         sodipodi:nodetypes="ccccccc" />
    </g>
    <rect
       style="opacity:1;fill:#ff0000;fill-opacity:1;stroke:none;stroke-opacity:1"
       id="PLAY_AREA"
       width="200"
       height="400"
       x="145"
       y="25"
       inkscape:label="#rect2191" />
    <rect
       style="opacity:1;fill:#ff0000;fill-opacity:1;stroke:none;stroke-opacity:1"
       id="NEXTPIECE_AREA"
       width="100"
       height="100"
       x="15"
       y="175"
       inkscape:label="#rect2193" />
    <rect
       style="opacity:1;fill:#2e3436;fill-opacity:1;fill-rule:nonzero;stroke:#bbbbbb;stroke-width:1;stroke-linecap:round;stroke-linejoin:miter;stroke-miterlimit:4;stroke-dasharray:none;stroke-dashoffset:0;stroke-opacity:1"
       id="BLOCK_SIZE"
       width="19"
       height="19"
       x="422.46207"
       y="123.50301" />
  </g>
</svg>
